<?xml version="1.0" encoding="utf-8"?>
<!-- Generator: Adobe Illustrator 23.0.2, SVG Export Plug-In . SVG Version: 6.00 Build 0)  -->
<svg version="1.1" id="Layer_1" xmlns="http://www.w3.org/2000/svg" xmlns:xlink="http://www.w3.org/1999/xlink" x="0px" y="0px"
	 viewBox="0 0 545.4 375.2" style="enable-background:new 0 0 545.4 375.2;" xml:space="preserve">
<style type="text/css">
	.st0{fill:#EF3938;stroke:#BE1E2D;stroke-miterlimit:10;}
	.st1{fill:url(#SVGID_1_);}
	.st2{fill:none;stroke:#BE1E2D;stroke-width:8;stroke-miterlimit:10;}
</style>
<g>
	<path d="M273.4,157.8c0,0-75.2-0.3-204.2,6.2c0,0-13.1,11.6-12.4,32.1c0,0-0.8,21.6,11.3,22c0,0,83.9,7.8,205.4,7.3V157.8z"/>
	<path d="M273.4,157.8c0,0,75.2-0.3,204.2,6.2c0,0,13.1,11.6,12.4,32.1c0,0,0.8,21.6-11.3,22c0,0-83.9,7.8-205.4,7.3V157.8z"/>
</g>
<g>
	<path class="st0" d="M71.9,190.9l-0.4-17.4c0,0,5.2-2.9,8.4-2.9l6.2-0.1c0,0-1.8,1-1.8,3c0,2,0.4,17.2,0.4,17.2"/>
	<path class="st0" d="M71.9,190.9l0.4,17.4c0,0,5.3,2.6,8.5,2.6l6.2-0.1c0,0-1.9-0.9-1.9-2.9c0-2-0.4-17.2-0.4-17.2"/>
</g>
<g>
	<path class="st0" d="M98.5,191.1l-0.4-18.9c0,0,5.1-3.1,8.4-3.2l6.2-0.1c0,0-1.8,1.1-1.8,3.2c0,2.2,0.4,18.7,0.4,18.7"/>
	<path class="st0" d="M98.5,191.1l0.4,18.9c0,0,5.3,2.9,8.5,2.8l6.2-0.1c0,0-1.9-1-1.9-3.2c0-2.2-0.4-18.7-0.4-18.7"/>
</g>
<g>
	<path class="st0" d="M126.8,191.3l-0.4-20.7c0,0,5.1-3.4,8.4-3.4l6.2-0.1c0,0-1.8,1.2-1.8,3.5s0.4,20.4,0.4,20.4"/>
	<path class="st0" d="M126.8,191.3l0.4,20.7c0,0,5.3,3.2,8.5,3.1l6.2-0.1c0,0-1.9-1.1-1.9-3.5s-0.4-20.4-0.4-20.4"/>
</g>
<g>
	<path class="st0" d="M473.5,191.4l0.4-17.4c0,0-5.2-2.9-8.4-2.9l-6.2-0.1c0,0,1.8,1,1.8,3c0,2-0.4,17.2-0.4,17.2"/>
	<path class="st0" d="M473.5,191.4l-0.4,17.4c0,0-5.3,2.6-8.5,2.6l-6.2-0.1c0,0,1.9-0.9,1.9-2.9c0-2,0.4-17.2,0.4-17.2"/>
</g>
<g>
	<path class="st0" d="M446.9,191.6l0.4-18.9c0,0-5.1-3.1-8.4-3.2l-6.2-0.1c0,0,1.8,1.1,1.8,3.2c0,2.2-0.4,18.7-0.4,18.7"/>
	<path class="st0" d="M446.9,191.6l-0.4,18.9c0,0-5.3,2.9-8.5,2.8l-6.2-0.1c0,0,1.9-1,1.9-3.2c0-2.2,0.4-18.7,0.4-18.7"/>
</g>
<g>
	<path class="st0" d="M418.6,191.8l0.4-20.7c0,0-5.1-3.4-8.4-3.4l-6.2-0.1c0,0,1.8,1.2,1.8,3.5c-0.1,2.4-0.4,20.4-0.4,20.4"/>
	<path class="st0" d="M418.6,191.8l-0.4,20.7c0,0-5.3,3.2-8.5,3.1l-6.2-0.1c0,0,1.9-1.1,1.9-3.5c0.1-2.4,0.4-20.4,0.4-20.4"/>
</g>
<linearGradient id="SVGID_1_" gradientUnits="userSpaceOnUse" x1="273.5886" y1="200.7869" x2="273.5886" y2="189.5245">
	<stop  offset="0" style="stop-color:#FFFFFF"/>
	<stop  offset="0.5111" style="stop-color:#9E9E9E"/>
	<stop  offset="1" style="stop-color:#FFFFFF"/>
</linearGradient>
<path class="st1" d="M298,189.5h-44.2c0,0-4.6,0-4.6,2.7c0,2.7,0,5.7,0,5.7s-0.5,2.8,4,2.8s18.8,0,18.8,0v-7.2h-11.3v2.7h6.6v1.8
	h-13.1V192h29.1v8.8h5v-9.2h9.8V189.5z"/>
<path class="st2" d="M274,347h-23.7c0,0-7.7,0.5-15.7-4c-8-4.5-31.3-4.1-31.3-4.1l-43.1,0c-18,2.7-25.1,8.1-25.1,8.1h-23.4
	c-11,9.1-20-2.1-20-2.1H66.8c-16.9,0-22.5-18.7-22.5-18.7l-1.1-3.8c-16-42.5-11.1-99.6-11.1-99.6c0.9-33.4,7.5-46.8,7.5-46.8
	s7-13.3,17-30.6c9.9-17.3,13.9-18.9,13.9-18.9c2.8-1.9,14.9-1.3,14.9-1.3c11.9-3.8,21.5-25.2,21.5-25.2c3.1-7.2,12.9-25.9,22.6-44.1
	c9.6-18.2,18.1-23.3,18.1-23.3C187.1,20.8,274,23.8,274,23.8l-0.6-0.1c0,0,86.9-3,126.5,8.6c0,0,8.4,5.1,18.1,23.3
	c9.6,18.2,19.5,36.9,22.6,44.1c0,0,9.6,21.5,21.5,25.2c0,0,12.1-0.6,14.9,1.3c0,0,3.9,1.6,13.9,18.9c9.9,17.3,17,30.6,17,30.6
	s6.6,13.4,7.5,46.8c0,0,5,57.1-11.1,99.6l-1.1,3.8c0,0-5.6,18.7-22.5,18.7h-25.1c0,0-9,11.2-20,2.1h-23.4c0,0-7-5.5-25.1-8.1
	l-43.1,0c0,0-23.3-0.4-31.3,4.1c-8,4.5-15.7,4-15.7,4h-23.7"/>
</svg>
